<svg role="img" viewBox="0 0 24 24" xmlns="http://www.w3.org/2000/svg"><title>Cohere</title><path d="M11.967 8.16l-3.232 4.093c-1.558 1.973-1.613 2.502-.279 3.565 1.547 1.229 3.203.262 4.49-.661l5.415-3.877c1.47-1.053 1.637-2.185.397-3.666-1.573-1.879-3.233-3.665-6.791.547zm-5.632 2.72c1.78-2.254 3.447-4.366 1.879-6.23-1.24-1.48-2.106-.547-3.576.505C3.168 6.208 1.512 7.394 2.19 9.35c.579 1.675 2.545 3.332 4.145 1.53zm11.233 8.35c-1.258 1.593-3.122 3.263-4.881 1.096-1.23-1.516 1.833-4.103 3.654-5.408l3.194-2.286c1.286-.921 2.376-.84 3.093.585.834 1.664.128 2.87-1.53 4.057l-3.53 2.527v-.571z"/></svg>
