<svg role="img" viewBox="0 0 24 24" xmlns="http://www.w3.org/2000/svg"><title>Hugging Face</title><path d="M9.957 2.05a3.1 3.1 0 0 0-2.482.9l-.658.629c-.732.613-1.464.793-2.179.537l-.895-.291a2.89 2.89 0 0 0-3.7 1.777l-.21.725c-.256.76-.082 1.503.498 2.126l.57.695c-.32.695-.53 1.493-.658 2.383-.165 1.252.128 2.399.787 3.327.53.76 1.263 1.34 2.16 1.721l.676.33a3.52 3.52 0 0 1 1.026 5.093l.366.073c1.556.292 3.22.256 4.96-.073.495-.09.97-.22 1.41-.366.567.512 1.317.787 2.086.769a3.11 3.11 0 0 0 2.226-.951l.659-.64a2.76 2.76 0 0 1 1.793-.531 3.4 3.4 0 0 1 .385 0l.896.293a2.89 2.89 0 0 0 3.699-1.775l.024-.07c.057-.223.092-.45.106-.68.04-.633-.142-1.285-.545-1.892l-.567-.695c.29-.623.49-1.34.586-2.127.128-1.079-.055-2.086-.494-2.928a5.55 5.55 0 0 0-1.884-2.196l-.677-.329a3.52 3.52 0 0 1-1.391-4.727l-.421-.092a10.95 10.95 0 0 0-5.326.073l-.403.11a3.15 3.15 0 0 0-2.207-.86Zm-4.904 8.233c.97 0 1.756.787 1.756 1.757 0 .97-.786 1.757-1.756 1.757a1.76 1.76 0 0 1 0-3.514Zm13.894 0c.97 0 1.757.787 1.757 1.757 0 .97-.787 1.757-1.757 1.757a1.76 1.76 0 0 1 0-3.514Z"/></svg>
