<svg role="img" viewBox="0 0 24 24" xmlns="http://www.w3.org/2000/svg"><title>NVIDIA</title><path d="M12.91 10.8c.84-.71 1.4-1.25 1.54-1.46.25-.37.38-.85.38-1.43 0-1.87-1.45-3.32-3.41-3.32-.97 0-1.92.35-2.61.99-.07.06-.06.16.03.22l.53.35c.07.05.17.03.22-.05.47-.63 1.1-1.02 1.83-1.02 1.05 0 1.75.76 1.75 1.77 0 .34-.07.61-.22.82-.13.18-.54.6-1.39 1.34-1.12.98-1.57 1.46-1.85 2.05-.2.43-.24.87-.24 2.12h4.53v-.53c0-1.08-.25-1.47-1.1-2.21l-.01.36zM11.96 0C5.36 0 0 5.36 0 11.96S5.36 23.92 11.96 23.92 23.92 18.56 23.92 11.96 18.56 0 11.96 0zm-1.07 19.33c-.56 0-1.03-.47-1.03-1.04 0-.57.47-1.03 1.03-1.03.58 0 1.05.46 1.05 1.03 0 .57-.47 1.04-1.05 1.04z"/></svg>
